<?xml version="1.0" encoding="utf-8"?>
<!-- Generator: Adobe Illustrator 23.0.5, SVG Export Plug-In . SVG Version: 6.00 Build 0)  -->
<svg version="1.1" id="Layer_1" xmlns="http://www.w3.org/2000/svg" xmlns:xlink="http://www.w3.org/1999/xlink" x="0px" y="0px"
	 viewBox="0 0 300 300" style="enable-background:new 0 0 300 300;" xml:space="preserve">
<style type="text/css">
	.st0{fill:#991C1C;}
</style>
<g>
	<path d="M143.6,70c-19.7,12.8-39.4,25.7-59.2,38.5c0.3,0.6,0.5,1.3,0.8,1.9c3.8-0.5,7.6-1,13-1.8c-32.4,41.8-64,82.5-95.5,123.2
		c1.4-0.5,2.8-1.1,4.2-1.6c1.9-0.8,3.4-1.5,4.1-1.8c0,0,48.7-29.8,109-67.3c2.7-1.7,6.1-4.6,6.4-7.2c0.8-9.3,0.3-18.8,0.3-28.2
		h-17.3c1.2,3,2.8,5.1,2.7,7c-0.4,6.5,1,16-2.6,18.9c-10.6,8.4-23.4,14.1-36.4,21.5c10.2-24.3,47.3-76.9,60.9-86.2v11.1
		c0.3-2.5,3.2-10.1,12.6-30.1C145.5,68.7,144.6,69.4,143.6,70z"/>
	<path d="M185.1,245.6c-0.7-1.6-1.1-2.5-1.6-3.5c-1.8-3.7-4.9-5.9-9-5.1c-4,0.7-8.2,1.6-11.6,3.5c-7,3.9-12.7,3.2-18.5-2.3
		c-4.6-4.4-9.7-8.3-14.7-12.2c-3.7-2.9-4.2-6.5-2.7-10.6c0.9-2.4,1.7-4.8,2.9-7c4.3-8,2.3-15.7-0.4-23.6c-2-5.8-3.4-11.9-4.4-18
		c-0.6-3.9,0.7-7.7,4.5-9.9c2.5-1.5,4.9-1.1,6,1.6c1.7,4.2,3.7,7.8,8.5,9.1c0.6,0.2,1.1,1.7,1.2,2.7c0.6,3.8,1,7.6,1.5,11.3
		c0.3,0,0.7,0,1,0c0-2.2,0-4.4,0-6.5c0.7-30.5,1.4-61.1,2-91.6c0-1.8-1.2-3.6-1.9-5.4c-0.6-1.3-1.4-2.6-2.3-4.3
		c-0.1,0-0.8,0.2-1.8,0.5c0-0.9-0.1-1.7-0.1-2.8c1.1,0.3,2,0.5,3.1,0.8c0-1.3,0-2.3,0-3.5c-1.2-0.1-3.9,1.9-2.9-2
		c0.9,0.3,1.7,0.5,2.7,0.8c0-1.1,0-2,0-3.4c-0.9,0.3-1.6,0.5-3.2,0.9c0.6-1.4,0.9-2.2,1.3-3.1c0.4,0.2,0.9,0.4,1.3,0.5
		c-1.4-3.7-0.6-6.5,3.2-8.3c0,2.4-1.1,5.5,2.7,5.3c7.5-0.4,6.7,0.4,6.5-4.9c3.6,1.4,4.2,2.7,3.5,6.6c1,1.3,1.6,2.2,2.2,3
		c-0.2,0.2-0.5,0.4-0.7,0.6c-0.7-0.2-1.4-0.5-2.4-0.8c-0.1,1.2-0.2,2.3-0.3,3.7c1.1-0.4,1.9-0.8,3-1.2c0,1.1,0,1.9,0,3
		c-1-0.4-1.8-0.7-3-1.1c0,1.3,0,2.3,0,3.6c1-0.2,1.8-0.4,2.9-0.6c0.1,0.8,0.2,1.6,0.3,2.7c-1.1-0.3-1.9-0.5-2-0.6
		c-0.9,1.7-1.8,3.1-2.5,4.6c-0.7,1.5-1.9,3.2-1.8,4.7c0.6,27.7,1.4,55.3,2.2,83c0.1,1.8,0.4,4.7,1.6,5.3c3.1,1.5,6.6,2.4,9.9-0.1
		c4.9-3.6,7-9.9,5.3-16.1c-0.3-1.2-0.8-2.3-1-3.5c-0.4-2.6,1.5-4,3.8-2.7c1.1,0.6,2.1,1.6,2.8,2.7c4,6.1,4.6,12.5,1.7,19.2
		c-0.6,1.4-1.3,2.9-2.3,4.1c-7,7.7-6.8,16.2-2.7,25.1c3.7,8.1,7.6,16,10.9,24.3c1.1,2.8,1.2,6.3,0.8,9.4
		C189.9,237.8,188.8,242,185.1,245.6z M164.6,219c-7.5,0-14.5,0-21.7,0c0,1.4,0,2.5,0,3.7c7.4,0,14.5,0,21.7,0
		C164.6,221.3,164.6,220.3,164.6,219z M161.9,201.4c-1.1-2.5-1.7-5.4-2.7-5.5c-4.1-0.5-8.3-0.2-12.4-0.2c0,2.3,0,4,0,5.8
		C151.5,201.4,155.9,201.4,161.9,201.4z M162,210.8c-1.2-2.4-1.8-5.4-2.8-5.5c-4.1-0.5-8.3-0.2-12.7-0.2c0.1,2.3,0.2,4,0.3,5.8
		C151.5,210.8,155.9,210.8,162,210.8z"/>
	<g>
		<path d="M197.4,152.2c1.1,3.3,2.9,7.9,5.8,13c2.9,5,5.7,8.4,9.1,12.4c2.6,3.2,6.3,7.3,11.1,11.8c-9.1-7.2-16.1-12-20.9-15.1
			c-3.4-2.2-6.7-4.4-10.1-6.6c-8-5.1-9.1-5.4-10.5-7.2c-1.9-2.3-3-4.7-2.6-16.8c0.3-12.2,0.3-24.4,0.5-36.6c0,0,0,0,0,0
			c0.2-7.7,0.2-12.5-2.5-17c-1-1.6-3.4-5.2-5.7-8.2c-1.3-1.7-1.9-2.4-3.8-4.9c-1.6-2-3.9-5.1-6.7-8.8c20.7,13.4,41.4,26.8,62.1,40.2
			c0.2,0.1,0.5,0.2,0.7,0.3c-5.3-0.4-10.7-0.8-16-1.1c10.4,14.2,20,27.4,29.7,40.7c0.5,0.7,1,1.5,1.5,2.2
			c-11.1-3.7-22.3-7.5-33.4-11.2c-1.7-0.6-3.4-1.3-5-1.9c32,26.9,63.3,55.4,93.8,85.8c1,1,2,2,2.9,2.9
			C264,201.4,230.7,176.8,197.4,152.2z"/>
	</g>
	<path class="st0" d="M210.5,125.3c-6.8-7.5-13.7-15-20.5-22.5c0,0,0,0,0,0c-0.1,1.2-0.6,12.3-0.6,12.3
		C196.4,118.5,203.5,121.9,210.5,125.3z"/>
	<g>
		<polygon points="146.8,201.4 162.2,201.4 162.2,201.4 162.2,195.5 162.2,195.5 146.8,195.5 146.8,195.5 146.8,201.4 		"/>
		<rect x="146.5" y="204.9" width="15.4" height="5.9"/>
		<rect x="142.9" y="219" width="21.7" height="3.7"/>
	</g>
	<circle class="st0" cx="157" cy="203.1" r="8.4"/>
</g>
</svg>
